<svg version="1.0" xmlns="http://www.w3.org/2000/svg"
 width="4000.000000pt" height="4000.000000pt" viewBox="0 0 4000.000000 4000.000000"
 preserveAspectRatio="xMidYMid meet">

<g transform="translate(0.000000,4000.000000) scale(0.100000,-0.100000)"
fill="#ffffff" stroke="none">
<path d="M16940 25496 c0 -21 215 -454 240 -481 9 -11 29 -44 44 -74 24 -49
79 -148 109 -195 51 -83 78 -130 106 -186 18 -36 50 -87 70 -115 21 -27 44
-66 51 -85 8 -19 28 -57 45 -85 17 -27 51 -88 74 -135 40 -79 82 -154 136
-240 13 -20 35 -60 50 -89 15 -30 44 -79 65 -110 21 -31 44 -69 51 -86 8 -16
44 -82 82 -145 38 -63 86 -149 107 -190 21 -41 56 -104 79 -140 22 -36 68
-119 102 -185 34 -66 90 -163 125 -216 35 -53 64 -99 64 -103 0 -4 13 -26 29
-49 16 -24 52 -90 81 -147 28 -58 57 -112 64 -120 7 -8 39 -64 70 -123 31 -60
72 -132 90 -160 18 -29 52 -89 75 -135 23 -45 56 -102 74 -126 38 -51 54 -78
127 -216 72 -135 180 -325 223 -392 68 -106 67 -83 67 -1253 0 -786 3 -1063
12 -1102 l13 -53 378 0 c326 0 378 -2 383 -15 4 -8 14 -15 24 -15 10 0 20 7
24 15 4 12 25 15 96 15 l90 0 0 59 c0 33 5 63 10 66 17 10 11 66 -10 101 -20
31 -20 43 -15 306 17 911 22 1065 29 1086 6 17 3 34 -13 62 -21 38 -22 48 -19
307 l2 268 -67 133 c-36 73 -86 161 -111 197 -24 36 -50 81 -56 100 -12 36
-88 187 -151 300 -19 34 -52 94 -74 134 -22 40 -62 112 -89 159 -27 48 -108
204 -181 347 -72 143 -173 334 -225 425 -51 91 -106 188 -121 215 -16 28 -29
55 -29 61 0 7 -19 43 -42 80 -23 38 -83 148 -133 246 -49 97 -122 232 -161
300 -40 67 -86 155 -103 193 -17 39 -43 93 -57 120 -82 155 -97 181 -115 207
-12 16 -31 54 -43 86 -13 32 -43 89 -68 128 -25 38 -72 121 -105 184 -76 148
-276 519 -318 590 -17 30 -53 98 -80 150 -26 52 -55 103 -63 113 -14 16 -54
17 -564 17 -301 0 -548 -2 -548 -4z"/>
<path d="M21806 25458 c-14 -39 -147 -279 -166 -303 -5 -5 -25 -41 -45 -80
-20 -38 -43 -77 -50 -85 -7 -8 -29 -51 -49 -95 -20 -43 -43 -86 -50 -95 -8 -8
-33 -53 -57 -100 -24 -47 -71 -131 -104 -187 -76 -130 -159 -280 -225 -408
-59 -114 -168 -312 -221 -400 -20 -33 -53 -89 -73 -125 -21 -36 -60 -101 -86
-145 -74 -120 -88 -147 -95 -188 -4 -21 -11 -40 -16 -43 -5 -3 -16 -18 -24
-34 -14 -27 -14 -34 3 -83 19 -52 146 -283 236 -428 25 -41 46 -78 46 -84 0
-20 256 -466 282 -490 4 -4 35 48 69 116 34 68 78 153 99 189 21 36 85 158
143 272 58 113 112 217 120 230 8 12 18 34 22 48 4 14 20 43 35 65 28 43 130
254 130 271 0 6 14 32 32 60 17 27 63 110 101 184 38 74 108 209 154 300 47
91 92 179 101 195 8 17 24 41 34 54 10 13 22 40 28 61 6 21 32 68 59 105 27
36 55 88 62 113 7 26 25 69 41 95 15 26 28 51 28 55 0 4 18 34 40 67 22 33 43
76 46 95 4 19 15 44 26 56 10 12 28 45 39 74 11 29 29 64 40 78 10 13 50 88
87 166 38 77 91 179 117 226 98 173 115 205 115 223 0 16 -32 17 -529 17
l-528 0 -17 -42z"/>
<path d="M3740 24836 c0 -406 -4 -627 -10 -631 -14 -9 -14 -567 0 -581 7 -7 9
-118 5 -330 -7 -443 -7 -652 0 -768 4 -65 3 -107 -4 -120 -8 -15 -10 -270 -7
-886 6 -1044 6 -849 0 -1824 -3 -539 -1 -813 6 -820 5 -5 10 -36 10 -67 0 -99
-233 -89 2102 -89 l2057 0 6 273 c6 332 7 455 2 527 l-3 55 -1546 3 -1546 2
-34 35 c-27 29 -35 47 -42 98 -12 84 -10 848 3 1192 18 472 24 1124 11 1140
-8 10 -9 24 -2 47 11 40 7 238 -8 333 -5 39 -13 171 -16 295 -3 124 -10 227
-15 228 -16 6 -9 31 11 42 20 11 20 17 16 303 -6 340 -18 605 -29 628 -6 12
-2 21 13 32 23 16 23 -95 5 942 -5 271 -3 354 6 373 10 18 10 27 1 42 -7 11
-12 49 -12 85 l0 65 -490 0 -490 0 0 -624z"/>
<path d="M32345 25417 c-7 -48 1 -4546 9 -4592 2 -16 5 -492 5 -1057 l1 -1027
38 -10 c25 -7 484 -11 1395 -11 1200 0 1357 2 1357 15 0 8 6 15 14 15 8 0 16
-7 20 -15 5 -13 90 -15 681 -15 l675 0 0 430 0 430 -1542 0 c-1258 1 -1546 3
-1560 14 -10 7 -27 33 -38 57 -19 44 -20 66 -20 2927 l0 2882 -514 0 -515 0
-6 -43z"/>
<path d="M12907 25369 c-9 -6 -26 -27 -37 -47 -12 -20 -33 -58 -49 -83 -16
-25 -32 -57 -35 -70 -10 -35 -74 -187 -142 -336 -13 -28 -24 -55 -24 -59 0 -5
-22 -56 -49 -114 -115 -248 -109 -229 -93 -285 8 -27 25 -64 37 -81 13 -17 44
-82 68 -145 25 -63 61 -144 80 -180 20 -35 57 -119 83 -186 29 -76 60 -138 80
-162 25 -29 34 -49 34 -76 0 -21 9 -52 19 -69 11 -17 29 -57 41 -89 12 -31 44
-99 71 -150 27 -50 49 -105 49 -121 0 -15 16 -58 35 -95 33 -64 60 -124 140
-316 20 -49 50 -115 65 -145 15 -30 44 -100 64 -155 21 -55 62 -152 91 -215
30 -63 82 -180 116 -260 33 -79 72 -163 85 -186 13 -22 24 -50 24 -61 0 -11 9
-32 20 -45 11 -15 22 -50 26 -82 5 -42 14 -64 39 -93 40 -47 55 -76 55 -103 0
-11 23 -66 50 -121 28 -55 50 -108 50 -116 0 -9 9 -30 19 -47 23 -37 70 -156
77 -191 2 -13 13 -39 23 -57 10 -18 24 -50 31 -70 6 -21 16 -38 21 -38 11 0
35 -47 44 -89 4 -19 20 -54 36 -79 16 -25 29 -55 29 -66 0 -12 9 -34 20 -51
11 -16 20 -38 20 -48 0 -9 11 -39 24 -65 14 -26 46 -98 71 -161 25 -63 52
-123 60 -134 11 -16 12 -24 3 -35 -9 -10 -6 -18 15 -35 14 -12 38 -51 53 -87
14 -36 41 -99 60 -140 19 -42 34 -80 34 -86 0 -5 9 -26 20 -46 21 -39 79 -187
100 -253 19 -60 40 -97 71 -126 17 -16 29 -37 29 -52 0 -13 11 -49 24 -78 13
-30 27 -70 31 -89 12 -57 76 -168 117 -205 36 -33 42 -35 111 -36 173 -2 932
3 935 6 7 7 -28 114 -59 185 -19 41 -67 141 -106 223 -40 81 -73 153 -73 160
0 6 -29 68 -64 137 -36 69 -74 150 -86 180 -12 30 -45 102 -75 160 -29 58 -65
136 -79 174 -15 38 -35 83 -45 100 -10 17 -22 42 -26 56 -4 14 -22 48 -40 75
-18 28 -39 64 -47 80 -9 17 -22 43 -31 59 -12 22 -13 33 -4 46 8 15 3 31 -29
86 -62 106 -167 327 -332 699 -14 33 -61 131 -104 218 -43 87 -78 163 -78 170
0 6 -11 34 -24 62 -66 140 -131 275 -153 320 -14 28 -36 79 -49 115 -14 36
-32 75 -40 88 -9 13 -22 41 -29 63 -8 21 -27 67 -44 101 -16 35 -50 108 -75
163 -78 174 -94 209 -128 271 -63 116 -100 203 -94 221 4 13 -12 47 -49 102
-30 46 -55 87 -55 92 0 10 -40 101 -100 227 -22 45 -40 87 -40 92 0 5 -35 83
-79 172 -71 148 -118 249 -218 468 -19 41 -58 125 -87 185 -124 256 -176 366
-176 375 0 5 -18 46 -40 92 -22 46 -40 87 -40 92 0 5 -16 41 -36 79 -19 38
-57 121 -83 185 -26 65 -60 135 -74 156 -15 21 -27 45 -27 52 0 20 -32 34 -53
23z"/>
<path d="M26746 25311 c-20 -27 -36 -52 -36 -55 0 -4 -16 -41 -35 -82 -19 -41
-35 -78 -35 -82 0 -6 -29 -70 -165 -362 -60 -130 -97 -218 -115 -272 -9 -31
-9 -41 4 -60 9 -12 16 -39 16 -59 0 -21 8 -47 20 -62 11 -14 20 -32 20 -41 0
-9 18 -54 40 -100 22 -46 40 -88 40 -94 0 -13 95 -196 121 -234 11 -14 19 -36
19 -48 0 -12 7 -34 15 -48 36 -66 86 -184 82 -195 -2 -7 25 -67 60 -135 34
-67 63 -129 63 -137 0 -7 9 -29 19 -47 11 -18 45 -98 76 -178 32 -80 77 -185
101 -233 25 -48 54 -113 65 -145 12 -31 35 -71 52 -89 25 -26 29 -38 24 -65
-4 -27 2 -45 29 -88 19 -30 34 -61 34 -69 0 -8 18 -49 40 -92 22 -43 40 -84
40 -91 0 -8 9 -31 19 -52 11 -21 23 -52 27 -69 11 -52 61 -150 98 -193 25 -29
34 -49 34 -74 -1 -24 12 -56 41 -102 22 -37 41 -80 41 -96 0 -15 14 -54 30
-85 17 -32 30 -64 30 -70 0 -7 8 -28 19 -47 10 -19 22 -51 26 -70 4 -19 16
-53 26 -75 9 -22 23 -55 30 -73 7 -19 25 -46 41 -62 28 -29 48 -90 52 -158 1
-19 8 -37 17 -43 9 -5 38 -64 64 -131 27 -68 52 -128 57 -135 5 -6 17 -33 27
-60 41 -106 91 -222 126 -288 20 -38 59 -126 87 -195 27 -69 60 -144 73 -167
13 -23 29 -59 35 -80 29 -90 103 -259 131 -297 16 -23 39 -75 50 -116 12 -41
30 -92 40 -112 11 -21 19 -44 19 -52 0 -8 20 -55 45 -103 25 -48 65 -136 90
-196 25 -59 54 -125 65 -147 l20 -40 511 0 511 0 -8 28 c-5 15 -9 50 -10 77
-2 49 -49 176 -92 248 -17 30 -78 164 -157 347 -18 41 -51 114 -74 162 -23 48
-41 89 -41 92 0 2 -37 80 -81 172 -45 93 -91 189 -103 214 -12 25 -36 70 -53
100 -17 30 -34 66 -38 79 -4 13 -20 44 -36 69 -16 25 -29 59 -29 74 0 16 -20
64 -45 107 -25 43 -45 86 -45 95 0 14 -66 164 -100 227 -64 119 -98 189 -104
214 -6 25 -106 242 -136 297 -6 10 -10 23 -10 30 0 7 -25 63 -55 125 -30 62
-74 159 -99 216 -24 57 -71 157 -103 223 -33 65 -66 135 -73 154 -8 19 -26 56
-42 81 -15 25 -35 65 -43 89 -8 23 -28 70 -44 104 -69 147 -104 225 -126 281
-12 33 -37 87 -54 120 -18 33 -46 93 -63 134 -17 40 -46 96 -65 125 -43 63
-93 171 -93 201 0 24 -44 120 -60 130 -17 11 -46 76 -65 150 -10 38 -47 124
-81 190 -35 66 -91 181 -124 255 -34 74 -73 159 -86 188 -13 29 -24 55 -24 57
0 5 -84 183 -182 384 -38 79 -76 166 -85 193 -16 55 -237 502 -262 531 -35 41
-47 40 -85 -12z"/>
<path d="M25762 23110 c-16 -28 -37 -76 -47 -108 -10 -31 -26 -75 -36 -98 -11
-23 -19 -46 -19 -53 0 -6 -27 -65 -60 -129 -33 -65 -60 -121 -60 -125 0 -6
-56 -136 -99 -232 -11 -22 -31 -71 -45 -110 -15 -38 -38 -97 -53 -130 -75
-174 -119 -269 -160 -352 -25 -51 -46 -105 -47 -120 -1 -16 -41 -107 -91 -203
-49 -96 -102 -204 -118 -240 -15 -36 -37 -83 -47 -105 -39 -83 -89 -207 -96
-238 -3 -18 -19 -57 -35 -87 -17 -33 -29 -70 -29 -94 0 -31 -7 -44 -34 -70
-42 -39 -77 -108 -116 -230 -17 -52 -47 -119 -67 -148 -19 -29 -39 -66 -43
-83 -8 -30 -28 -78 -138 -325 -32 -74 -85 -196 -116 -270 -84 -199 -98 -232
-165 -376 -34 -72 -61 -134 -61 -137 0 -3 -20 -54 -45 -112 -44 -102 -45 -106
-31 -140 l15 -35 478 2 477 3 30 47 c27 45 69 152 100 258 8 25 37 89 65 144
54 104 116 247 133 306 14 49 98 263 108 275 11 13 100 250 100 266 0 6 26 66
58 132 33 67 64 144 71 170 10 40 45 117 90 197 5 8 13 33 19 55 22 81 67 194
137 339 19 40 35 79 35 87 0 20 36 116 53 142 8 12 20 40 27 62 7 22 34 85 60
140 56 120 71 159 78 204 2 19 15 50 28 69 13 19 24 42 24 51 0 9 11 29 25 45
14 16 25 42 25 58 0 16 11 50 24 77 14 26 34 76 45 109 12 34 35 84 52 112 33
54 33 72 -4 123 -11 16 -30 60 -43 98 -13 38 -53 129 -89 202 -37 72 -90 193
-120 267 -64 165 -174 360 -202 360 -7 0 -25 -23 -41 -50z"/>
<path d="M11915 23141 c-23 -10 -75 -105 -75 -138 0 -13 -12 -49 -26 -80 -15
-32 -46 -101 -70 -153 -81 -178 -96 -212 -110 -253 -8 -23 -26 -60 -39 -83
-14 -24 -25 -49 -25 -56 0 -7 -25 -64 -55 -125 -30 -62 -55 -115 -55 -119 0
-7 -63 -151 -89 -204 -10 -19 -24 -53 -31 -75 -7 -22 -32 -78 -55 -125 -24
-47 -50 -109 -58 -137 -9 -29 -40 -99 -70 -156 -30 -57 -57 -115 -60 -128 -11
-52 -47 -133 -67 -151 -13 -13 -19 -26 -15 -39 4 -12 -3 -31 -18 -51 -14 -18
-28 -48 -32 -65 -3 -18 -10 -35 -15 -38 -18 -11 -93 -182 -91 -209 1 -15 -3
-34 -9 -41 -15 -18 -130 -254 -146 -299 -10 -29 -11 -42 -3 -52 8 -10 6 -20
-11 -41 -60 -78 -105 -160 -146 -268 -26 -66 -53 -130 -60 -142 -8 -12 -32
-68 -54 -125 -23 -57 -61 -147 -85 -200 -25 -54 -65 -142 -89 -195 -25 -54
-84 -197 -132 -318 -47 -121 -93 -233 -101 -249 -19 -36 -4 -69 38 -86 24 -10
33 -8 73 15 40 24 52 26 99 20 28 -4 210 -9 403 -11 l351 -4 26 34 c14 18 35
55 45 82 64 164 153 376 176 418 14 27 26 58 26 69 0 10 13 45 29 76 16 31 32
70 35 88 3 18 23 69 45 115 22 46 45 101 50 123 6 22 23 60 37 85 14 25 39 83
56 130 89 246 108 294 172 420 18 36 36 81 40 101 9 48 62 174 124 294 29 54
52 108 52 120 0 23 27 97 63 170 28 56 72 167 82 205 4 14 21 57 40 95 18 39
40 93 48 121 8 28 26 73 40 100 14 27 30 70 37 94 13 51 32 98 59 150 11 20
24 54 30 76 6 23 25 58 41 79 17 21 33 50 36 64 3 14 9 34 15 43 5 10 9 30 9
46 0 35 -74 231 -127 337 -22 44 -57 118 -76 165 -61 146 -205 444 -226 468
-21 24 -26 25 -56 13z"/>
<path d="M32398 18428 c-8 -20 -10 -632 -2 -651 5 -15 24 -17 130 -17 172 0
264 15 315 52 55 40 79 83 79 141 0 85 -44 143 -122 162 -16 4 -28 9 -28 12 0
3 25 28 55 57 51 48 55 55 55 97 0 56 -34 109 -87 134 -51 25 -387 36 -395 13z
m285 -79 c79 -22 100 -83 50 -139 -31 -35 -79 -49 -160 -50 -44 0 -53 3 -54
18 -2 48 3 167 7 174 7 12 113 10 157 -3z m54 -292 c64 -34 80 -92 42 -153
-29 -48 -46 -54 -159 -61 l-100 -6 0 123 0 123 93 -5 c57 -3 104 -11 124 -21z"/>
<path d="M33090 18433 c0 -5 0 -156 -1 -338 l-1 -330 223 0 224 0 0 35 0 35
-167 3 -167 2 4 108 4 107 143 5 143 5 3 38 3 37 -145 0 c-80 0 -147 3 -149 8
-3 4 -2 53 1 110 l5 102 153 0 c85 0 154 3 155 8 0 4 2 15 4 26 9 45 5 46
-221 46 -118 0 -214 -3 -214 -7z"/>
<path d="M33886 18373 c-18 -38 -79 -167 -134 -288 -56 -121 -110 -238 -121
-260 -33 -62 -30 -66 41 -63 l62 3 36 85 36 85 169 3 170 2 19 -47 c11 -27 28
-67 39 -90 l19 -43 64 0 c35 0 64 2 64 4 0 4 -39 89 -150 326 -104 222 -127
272 -143 313 -16 37 -16 37 -76 37 l-61 0 -34 -67z m114 -105 c42 -94 100
-231 100 -239 0 -5 -56 -9 -125 -9 -69 0 -125 4 -125 8 0 5 25 65 55 133 30
68 55 130 55 137 0 26 21 10 40 -30z"/>
<path d="M34465 18314 c-9 -158 0 -348 20 -405 29 -81 87 -121 204 -141 82
-14 207 -1 263 28 122 62 135 96 144 408 l7 237 -63 -3 -63 -3 2 -227 c2 -207
1 -230 -17 -265 -37 -71 -94 -102 -192 -103 -71 0 -116 23 -155 79 l-30 43 2
239 3 239 -59 0 -59 0 -7 -126z"/>
<path d="M35217 18420 c-3 -11 -3 -29 0 -40 5 -19 14 -20 124 -20 l119 0 0
-300 0 -301 58 3 57 3 3 298 2 297 103 0 c56 0 108 4 115 9 8 5 12 21 10 37
l-3 29 -291 3 c-285 2 -292 2 -297 -18z"/>
<path d="M35850 18423 c0 -9 6 -24 14 -32 8 -9 64 -96 125 -194 l111 -179 0
-129 0 -129 60 0 60 0 0 131 0 130 43 67 c24 37 63 98 88 137 24 38 63 98 87
134 23 35 42 68 42 73 0 5 -26 8 -57 6 -65 -3 -57 5 -192 -207 -35 -56 -68
-101 -72 -101 -4 0 -10 7 -13 16 -3 9 -45 79 -92 155 l-86 139 -59 0 c-48 0
-59 -3 -59 -17z"/>
<path d="M10635 14750 c-360 -72 -636 -301 -793 -658 -74 -168 -132 -484 -132
-717 0 -135 31 -392 60 -500 83 -307 228 -533 444 -692 333 -245 903 -268
1268 -50 172 103 325 308 403 541 39 117 45 109 -107 156 -73 23 -167 53 -208
66 -41 13 -80 24 -86 24 -6 0 -17 -27 -23 -60 -16 -78 -73 -220 -113 -278
-108 -158 -258 -232 -468 -232 -112 0 -211 26 -293 76 -52 32 -137 114 -182
174 -36 49 -102 175 -117 224 -62 206 -84 408 -74 666 14 337 95 572 254 741
87 93 169 140 283 164 201 42 381 -4 506 -132 79 -79 155 -229 173 -340 11
-68 14 -73 37 -73 23 0 63 10 331 77 56 14 102 31 102 37 0 24 -63 213 -87
261 -151 298 -395 477 -723 530 -128 20 -339 18 -455 -5z"/>
<path d="M13135 14750 c-336 -61 -587 -247 -757 -560 -79 -147 -139 -349 -159
-541 -15 -143 -15 -432 -1 -566 44 -398 232 -737 516 -932 207 -143 558 -205
843 -150 186 36 302 85 438 186 232 172 379 425 452 776 26 126 28 145 28 417
0 259 -2 295 -23 399 -49 240 -124 416 -246 578 -130 172 -262 270 -475 350
-159 60 -422 78 -616 43z m337 -355 c286 -60 465 -312 519 -730 24 -192 24
-389 0 -570 -25 -186 -51 -278 -116 -411 -46 -93 -66 -121 -127 -181 -118
-114 -221 -154 -397 -157 -116 -1 -169 12 -273 67 -129 67 -244 223 -307 416
-53 162 -66 269 -66 546 0 349 25 482 126 685 65 130 171 243 271 290 122 57
241 72 370 45z"/>
<path d="M15575 14750 c-117 -21 -189 -45 -284 -95 -132 -70 -254 -191 -316
-315 -12 -25 -32 -86 -44 -137 -42 -171 -17 -395 61 -545 96 -186 310 -322
679 -433 85 -26 195 -60 244 -77 266 -88 364 -166 399 -318 37 -154 7 -278
-89 -373 -80 -78 -208 -117 -391 -117 -120 0 -183 13 -273 55 -129 61 -242
203 -286 360 -10 33 -19 62 -21 64 -2 2 -90 -25 -196 -59 -106 -34 -204 -65
-218 -69 -34 -11 -31 -35 17 -147 167 -388 514 -578 1021 -561 321 10 550 94
717 261 86 86 154 216 181 341 21 102 22 294 0 393 -36 172 -141 311 -310 411
-140 83 -188 101 -581 222 -244 74 -354 125 -413 187 -70 76 -86 120 -90 244
-4 102 -2 109 27 171 17 36 45 77 63 92 78 66 200 105 335 107 235 3 388 -114
469 -360 15 -46 31 -79 38 -76 6 2 103 29 216 59 112 31 208 62 212 68 10 16
4 35 -42 133 -111 239 -287 401 -525 482 -151 51 -418 65 -600 32z"/>
<path d="M27010 14750 c-221 -41 -392 -131 -549 -288 -94 -94 -156 -181 -219
-307 -61 -122 -88 -207 -132 -421 -5 -23 -14 -115 -20 -204 -23 -349 32 -691
148 -925 86 -174 234 -348 378 -444 201 -135 517 -204 780 -171 392 49 641
216 794 534 54 113 94 225 88 251 -2 13 -26 25 -78 40 -41 13 -136 41 -210 63
-74 23 -139 37 -143 33 -4 -4 -15 -39 -22 -77 -19 -86 -100 -255 -153 -315
-58 -65 -135 -114 -226 -144 -156 -50 -370 -27 -496 53 -118 75 -231 233 -294
410 -53 148 -70 283 -70 542 0 205 3 250 23 354 70 368 243 596 495 656 245
59 460 -15 590 -204 46 -68 78 -144 107 -258 l22 -86 56 14 c31 8 94 23 141
33 147 34 242 59 248 66 8 8 -33 144 -71 234 -78 189 -240 368 -413 457 -116
61 -196 87 -319 109 -121 20 -333 18 -455 -5z"/>
<path d="M29295 14750 c-337 -61 -568 -252 -646 -535 -45 -166 -19 -411 59
-559 94 -177 307 -315 647 -421 332 -103 378 -119 455 -156 142 -68 203 -144
231 -287 13 -69 2 -169 -28 -244 -21 -54 -120 -142 -187 -167 -113 -42 -328
-55 -439 -26 -191 50 -329 191 -393 401 -10 32 -19 60 -20 62 -3 5 -428 -130
-438 -139 -23 -21 71 -228 153 -336 177 -234 480 -364 850 -363 509 2 846 204
947 570 28 99 26 390 -3 477 -68 204 -218 343 -491 458 -43 17 -165 57 -272
89 -362 107 -477 157 -545 241 -59 72 -77 124 -78 234 -1 111 14 161 68 227
77 93 212 139 392 133 99 -4 114 -7 183 -40 118 -56 198 -153 246 -295 14 -43
29 -84 33 -90 7 -13 431 101 442 118 15 23 -43 155 -116 268 -144 221 -347
345 -625 384 -145 20 -298 19 -425 -4z"/>
<path d="M17297 14723 c-4 -3 -7 -611 -7 -1350 l0 -1343 205 0 206 0 -1 1157
c-1 637 2 1159 7 1160 28 9 41 -33 129 -407 13 -58 33 -139 44 -180 45 -173
93 -368 101 -408 5 -24 11 -47 14 -53 3 -5 12 -37 20 -71 13 -59 29 -122 91
-355 14 -54 29 -114 34 -133 4 -19 31 -125 59 -235 50 -190 104 -403 116 -453
l5 -22 277 2 277 3 57 225 c74 294 210 819 309 1195 72 273 153 609 195 808
15 70 18 77 41 77 l24 0 0 -1155 0 -1155 220 0 220 0 2 1343 c2 760 -1 1345
-6 1348 -5 4 -171 7 -370 8 -283 2 -364 -1 -377 -11 -9 -8 -44 -131 -92 -323
-269 -1092 -320 -1299 -338 -1380 -24 -106 -41 -179 -68 -295 -11 -47 -27
-116 -36 -155 -19 -83 -40 -121 -59 -106 -7 6 -23 59 -36 118 -81 384 -168
756 -304 1308 -86 347 -167 675 -181 729 -13 55 -30 103 -37 107 -15 10 -732
12 -741 2z"/>
<path d="M20595 14722 c-7 -5 -11 -434 -10 -1347 l0 -1340 903 -3 902 -2 -2
187 -3 188 -662 3 -663 2 0 430 0 430 495 0 495 0 0 185 0 185 -495 0 -495 0
0 355 0 355 648 0 649 0 7 180 c4 99 4 185 1 190 -7 12 -1754 14 -1770 2z"/>
<path d="M22633 14723 c-10 -3 -13 -52 -13 -194 l0 -189 395 0 395 0 0 -1155
0 -1155 240 0 240 0 0 1155 0 1155 400 0 400 0 -2 193 -3 192 -1020 2 c-561 1
-1026 -1 -1032 -4z"/>
<path d="M25122 14718 c-9 -9 -12 -319 -12 -1334 0 -727 3 -1329 6 -1338 5
-14 36 -16 240 -16 l234 0 0 1344 c0 1216 -2 1344 -16 1350 -31 12 -439 7
-452 -6z"/>
<path d="M945 13458 c-27 -4 -80 -10 -117 -14 l-68 -6 0 -229 c0 -176 3 -229
13 -230 6 0 21 -3 32 -7 35 -11 7318 -13 7329 -2 5 5 18 10 27 10 14 0 18 13
23 73 15 175 17 260 7 270 -6 6 -11 35 -11 64 l0 53 -42 1 c-24 0 -54 3 -68 6
-38 9 -7068 19 -7125 11z"/>
<path d="M32672 13458 c-9 -9 -93 -14 -310 -18 l-297 -5 -3 -226 -2 -226 42
-12 c33 -9 934 -11 3688 -9 3230 3 3648 5 3675 18 l30 15 3 233 2 232 -3292
-3 c-1811 -2 -3336 -5 -3388 -6 -59 -1 -96 2 -98 9 -5 14 -35 13 -50 -2z"/>
</g>
</svg>
