<svg version="1.0" xmlns="http://www.w3.org/2000/svg"
 width="4000.000000pt" height="2000.000000pt" viewBox="0 0 4000.000000 2000.000000"
 preserveAspectRatio="xMidYMid meet">

<g transform="translate(0.000000,2000.000000) scale(0.100000,-0.100000)"
fill="#ffffff" stroke="none">
<path d="M16940 16196 c0 -21 215 -454 239 -481 10 -11 35 -54 56 -95 20 -41
64 -119 98 -175 33 -55 78 -134 100 -175 21 -41 52 -92 68 -112 16 -20 49 -74
73 -120 115 -220 141 -268 178 -333 23 -38 51 -86 63 -105 13 -20 35 -61 50
-90 15 -30 45 -80 65 -110 20 -30 50 -80 65 -110 15 -30 52 -95 82 -145 30
-49 72 -123 93 -165 21 -41 56 -104 79 -140 22 -36 68 -119 102 -185 34 -66
89 -163 124 -215 84 -129 124 -198 180 -310 25 -52 52 -102 60 -110 7 -8 27
-43 44 -78 18 -35 61 -112 95 -170 35 -59 80 -140 100 -180 20 -40 51 -92 69
-116 38 -51 54 -78 127 -216 72 -135 180 -325 223 -392 68 -106 67 -83 67
-1253 0 -787 3 -1063 12 -1102 l13 -53 378 0 c326 0 378 -2 383 -15 8 -19 40
-19 48 0 4 12 25 15 96 15 l90 0 0 59 c0 33 5 63 10 66 17 11 11 71 -10 98
-20 25 -20 35 -15 304 17 884 22 1070 29 1091 6 17 3 34 -13 62 -21 38 -22 48
-20 307 l3 268 -67 132 c-36 73 -86 162 -111 198 -24 36 -50 82 -57 103 -7 20
-18 46 -25 57 -7 11 -20 40 -30 65 -9 25 -25 57 -35 71 -10 15 -35 57 -56 95
-93 170 -121 221 -167 302 -27 48 -108 204 -181 347 -72 143 -173 334 -225
425 -51 91 -106 188 -121 215 -16 28 -29 55 -29 61 0 7 -19 43 -42 80 -23 38
-83 148 -133 245 -49 97 -125 237 -168 311 -42 74 -95 175 -116 224 -21 49
-55 116 -75 148 -20 33 -36 64 -36 69 0 4 -14 29 -31 54 -17 24 -41 70 -54
102 -12 31 -42 88 -67 127 -25 38 -72 121 -105 184 -76 148 -276 519 -318 590
-17 30 -53 98 -80 150 -26 52 -55 103 -63 113 -14 16 -54 17 -564 17 -301 0
-548 -2 -548 -4z"/>
<path d="M21801 16148 c-23 -57 -117 -227 -162 -293 -14 -22 -29 -49 -33 -60
-3 -11 -22 -44 -41 -74 -20 -30 -51 -88 -71 -129 -19 -42 -41 -83 -48 -92 -8
-8 -36 -58 -63 -110 -27 -52 -64 -119 -83 -148 -41 -67 -129 -227 -221 -402
-62 -119 -109 -204 -263 -476 -21 -38 -52 -89 -67 -114 -82 -133 -157 -269
-164 -299 -4 -18 -18 -49 -31 -68 -16 -25 -22 -43 -18 -62 9 -39 81 -179 174
-336 76 -128 94 -161 138 -250 42 -85 245 -432 264 -450 4 -4 35 48 69 116 34
68 78 153 99 189 21 36 85 157 142 270 57 113 111 216 120 230 9 14 19 36 23
50 4 14 20 43 35 65 28 41 130 254 130 271 0 6 14 32 32 60 30 46 61 106 260
494 44 85 87 169 95 185 9 17 22 37 30 46 8 9 22 39 32 66 10 28 37 76 60 107
24 31 51 81 60 109 22 64 79 177 120 237 17 25 34 61 37 80 4 19 15 44 26 56
10 12 28 45 39 75 11 30 27 61 35 70 8 9 55 97 104 195 49 99 118 231 154 294
36 63 66 123 66 133 0 16 -32 17 -529 17 l-528 0 -22 -52z"/>
<path d="M3740 15536 c0 -406 -4 -627 -10 -631 -6 -4 -10 -112 -10 -290 0
-178 4 -286 10 -290 14 -9 14 -627 0 -641 -11 -11 -8 -240 5 -458 4 -65 3
-107 -4 -120 -8 -15 -10 -270 -7 -886 6 -1044 6 -849 0 -1824 -3 -539 -1 -813
6 -820 5 -5 10 -36 10 -67 0 -99 -233 -89 2102 -89 l2057 0 6 273 c6 332 7
455 2 527 l-3 55 -1546 3 -1546 2 -34 35 c-27 29 -35 47 -42 98 -12 84 -10
848 3 1192 18 472 24 1124 11 1140 -8 10 -9 24 -2 47 11 41 7 238 -8 333 -6
39 -13 167 -16 285 -3 134 -9 224 -17 238 -10 20 -8 26 11 41 l23 17 -5 289
c-6 339 -18 603 -29 626 -6 12 -2 21 13 32 23 16 23 -68 5 941 -5 273 -4 355
6 373 10 19 10 28 1 43 -7 11 -12 49 -12 85 l0 65 -490 0 -490 0 0 -624z"/>
<path d="M32345 16117 c-7 -46 1 -4543 8 -4592 2 -16 5 -492 6 -1057 l1 -1027
38 -10 c25 -7 484 -11 1395 -11 1200 0 1357 2 1357 15 0 8 6 15 14 15 8 0 16
-7 20 -15 5 -13 90 -15 681 -15 l675 0 0 430 0 430 -1542 0 c-1258 1 -1546 3
-1560 14 -10 7 -27 33 -38 57 -19 44 -20 66 -20 2927 l0 2882 -514 0 -515 0
-6 -43z"/>
<path d="M12907 16069 c-9 -6 -26 -27 -37 -47 -12 -20 -33 -58 -49 -83 -16
-25 -32 -57 -35 -70 -10 -36 -124 -303 -153 -359 -7 -14 -13 -29 -13 -35 0 -5
-22 -57 -49 -115 -115 -248 -109 -229 -93 -285 8 -27 25 -64 37 -81 13 -17 40
-73 60 -125 20 -52 60 -143 90 -204 29 -60 70 -154 90 -207 22 -56 52 -114 71
-137 25 -29 34 -49 34 -76 0 -21 9 -52 19 -69 11 -17 29 -57 41 -89 12 -31 44
-99 71 -150 27 -50 49 -105 49 -121 0 -15 16 -58 35 -95 33 -64 60 -124 140
-316 20 -49 50 -115 65 -145 15 -30 44 -100 64 -155 21 -55 62 -152 91 -215
60 -128 148 -332 160 -369 4 -13 20 -44 36 -69 16 -25 29 -56 29 -68 0 -12 9
-32 19 -46 11 -14 23 -48 27 -77 4 -30 17 -66 30 -84 50 -68 64 -93 64 -115 0
-12 23 -67 50 -122 28 -55 50 -107 50 -116 0 -9 9 -31 19 -48 23 -37 70 -156
77 -191 2 -13 13 -39 23 -57 10 -18 24 -50 31 -70 6 -21 16 -38 21 -38 11 0
35 -47 44 -89 4 -19 20 -54 36 -79 16 -25 29 -55 29 -66 0 -12 9 -34 20 -51
11 -16 20 -39 20 -50 0 -11 9 -34 19 -51 11 -17 40 -85 66 -150 26 -66 56
-133 66 -150 14 -24 16 -33 6 -43 -9 -9 -6 -16 15 -34 15 -12 39 -51 54 -87
14 -36 41 -99 60 -140 19 -42 34 -80 34 -86 0 -5 9 -26 20 -46 21 -39 79 -187
100 -253 19 -61 40 -98 67 -120 14 -12 29 -38 33 -60 13 -58 74 -222 106 -283
15 -29 44 -68 66 -87 36 -33 42 -35 111 -36 169 -2 932 3 935 6 2 1 -3 24 -9
51 -13 53 -31 94 -150 344 -44 91 -79 169 -79 175 0 5 -29 66 -64 135 -36 69
-74 150 -86 180 -12 30 -45 102 -75 160 -29 58 -65 136 -79 174 -15 38 -35 83
-45 100 -10 17 -22 42 -26 56 -4 14 -22 48 -40 75 -18 28 -39 64 -47 80 -9 17
-22 43 -31 59 -12 22 -13 33 -5 46 9 14 5 28 -17 66 -16 27 -51 92 -78 144
-46 91 -63 126 -174 375 -87 194 -106 235 -190 407 -46 93 -83 174 -83 181 0
11 -7 28 -95 212 -24 50 -61 129 -84 176 -23 48 -41 90 -41 94 0 5 -15 40 -34
79 -19 39 -55 118 -81 176 -43 97 -87 195 -149 330 -14 30 -40 82 -58 116 -63
116 -100 203 -94 221 4 13 -12 47 -49 102 -30 46 -55 87 -55 92 0 10 -40 101
-100 227 -22 45 -40 87 -40 92 0 5 -35 83 -79 172 -71 149 -124 261 -218 468
-19 41 -58 123 -88 182 -30 58 -55 112 -55 118 0 7 -27 66 -60 131 -33 65 -60
123 -60 129 0 5 -18 47 -40 91 -22 45 -40 86 -40 92 0 6 -16 42 -36 80 -19 38
-57 121 -83 185 -26 65 -60 135 -74 156 -15 21 -27 45 -27 52 0 20 -32 34 -53
23z"/>
<path d="M26741 16003 c-23 -31 -41 -64 -41 -73 0 -9 -4 -20 -9 -25 -5 -6 -25
-48 -44 -95 -19 -47 -54 -125 -77 -175 -124 -268 -151 -325 -173 -380 -46
-112 -50 -132 -33 -157 9 -12 16 -39 16 -59 0 -21 8 -47 20 -62 11 -14 20 -33
20 -42 0 -10 18 -53 40 -97 22 -44 40 -86 40 -93 0 -15 93 -196 121 -237 11
-14 19 -36 19 -48 0 -12 7 -34 15 -48 36 -66 86 -184 82 -195 -2 -6 25 -67 60
-134 35 -67 63 -129 63 -137 0 -8 9 -30 19 -48 11 -18 45 -98 76 -178 32 -80
77 -185 101 -233 25 -48 54 -113 65 -145 12 -31 35 -70 51 -86 26 -25 29 -35
25 -66 -4 -30 2 -47 29 -90 19 -30 34 -62 34 -71 0 -10 18 -51 40 -91 22 -40
40 -80 40 -88 0 -8 11 -37 25 -65 13 -27 25 -58 25 -67 0 -30 57 -141 94 -184
25 -29 34 -49 34 -74 -1 -24 12 -56 41 -102 22 -37 41 -80 41 -95 0 -16 14
-55 30 -88 16 -33 30 -67 30 -76 0 -8 7 -24 15 -35 8 -10 19 -37 25 -59 6 -22
19 -60 29 -85 11 -25 25 -60 32 -78 6 -19 25 -46 41 -62 28 -29 48 -90 52
-158 1 -19 8 -37 17 -43 9 -5 38 -64 64 -131 27 -68 52 -128 57 -135 5 -6 17
-33 27 -60 41 -106 91 -222 126 -288 20 -38 59 -126 86 -195 28 -69 63 -149
80 -177 16 -29 29 -58 29 -65 0 -27 101 -260 131 -304 17 -25 40 -78 51 -117
11 -40 29 -89 39 -109 11 -21 19 -44 19 -53 0 -8 18 -48 39 -88 21 -39 51
-103 66 -142 15 -38 47 -112 71 -162 l43 -93 511 0 512 0 -8 28 c-5 15 -9 50
-10 77 -2 50 -58 202 -94 255 -14 21 -143 306 -170 375 -4 11 -24 54 -45 95
-20 41 -43 91 -50 110 -7 19 -48 107 -90 195 -43 88 -87 180 -99 205 -12 25
-36 70 -53 100 -17 30 -34 66 -38 79 -4 13 -20 44 -36 69 -16 25 -29 59 -29
74 0 16 -20 64 -45 107 -25 43 -45 86 -45 95 0 14 -66 164 -100 227 -64 119
-98 189 -104 214 -6 25 -106 242 -136 297 -6 10 -10 25 -10 34 0 9 -9 31 -19
48 -10 17 -51 103 -91 191 -39 88 -107 234 -151 325 -43 91 -79 168 -79 172 0
4 -13 30 -30 56 -16 27 -37 68 -45 92 -8 23 -28 70 -44 104 -69 147 -104 225
-126 281 -12 33 -37 87 -54 120 -18 33 -46 93 -63 134 -17 40 -46 96 -65 125
-43 63 -93 171 -93 201 0 26 -24 78 -55 120 -33 45 -50 83 -70 160 -10 38 -47
124 -81 190 -35 66 -91 181 -124 255 -34 74 -73 159 -86 188 -13 29 -24 55
-24 57 0 5 -84 183 -182 384 -38 79 -76 166 -85 193 -16 55 -237 502 -262 531
-36 43 -47 40 -90 -20z"/>
<path d="M25762 13810 c-16 -28 -37 -76 -47 -108 -10 -31 -26 -75 -36 -98 -11
-23 -19 -46 -19 -52 0 -6 -29 -71 -64 -144 -35 -73 -80 -171 -101 -218 -20
-47 -45 -103 -55 -125 -10 -22 -30 -71 -44 -110 -15 -38 -38 -97 -53 -130 -74
-171 -119 -269 -159 -350 -24 -49 -44 -101 -44 -115 0 -14 -43 -108 -95 -210
-52 -102 -109 -219 -126 -260 -17 -41 -35 -79 -39 -85 -12 -17 -89 -208 -96
-240 -4 -16 -20 -55 -35 -85 -17 -33 -29 -71 -29 -94 0 -31 -7 -44 -34 -70
-39 -36 -90 -132 -107 -202 -16 -66 -54 -151 -86 -192 -14 -19 -29 -48 -33
-66 -8 -31 -27 -76 -138 -326 -32 -74 -85 -196 -116 -270 -84 -199 -98 -232
-165 -376 -34 -72 -61 -134 -61 -137 0 -3 -20 -54 -45 -112 -44 -102 -45 -106
-31 -140 l15 -35 478 2 478 3 31 53 c30 49 67 145 99 252 7 25 36 89 64 144
54 104 116 247 133 306 14 49 98 263 108 275 11 14 100 250 100 266 0 7 26 67
58 133 33 67 64 143 71 169 10 40 45 117 90 197 5 8 13 33 19 55 22 81 69 198
138 341 19 39 34 76 34 83 0 23 33 116 50 141 10 14 23 43 30 65 7 22 34 85
60 140 56 120 71 159 78 204 2 19 15 50 28 69 13 19 24 41 24 49 0 9 11 28 25
45 14 17 25 42 25 59 0 16 11 51 24 77 13 26 34 76 47 112 13 36 36 85 51 110
32 50 31 74 -4 123 -11 16 -31 59 -44 97 -12 37 -56 137 -97 221 -41 85 -94
204 -118 264 -57 147 -170 345 -196 345 -7 0 -25 -23 -41 -50z"/>
<path d="M11916 13841 c-22 -8 -76 -106 -76 -137 0 -12 -11 -48 -26 -80 -33
-77 -113 -252 -131 -286 -7 -15 -25 -58 -39 -95 -14 -37 -33 -81 -43 -98 -9
-16 -25 -52 -35 -80 -10 -27 -38 -89 -62 -136 -24 -47 -44 -89 -44 -94 0 -7
-36 -91 -95 -220 -12 -27 -26 -61 -30 -75 -4 -14 -27 -63 -50 -110 -24 -47
-50 -109 -58 -137 -9 -29 -40 -99 -70 -156 -30 -57 -57 -115 -60 -128 -13 -56
-40 -117 -62 -142 -13 -17 -21 -36 -18 -47 3 -11 -6 -33 -21 -53 -14 -19 -26
-39 -26 -45 0 -6 -26 -61 -57 -124 -36 -71 -56 -124 -55 -142 2 -15 -2 -34 -8
-41 -15 -18 -130 -254 -146 -299 -11 -29 -11 -42 -3 -53 9 -10 8 -19 -8 -36
-48 -54 -108 -166 -154 -284 -28 -70 -54 -132 -59 -138 -4 -5 -25 -53 -45
-105 -20 -52 -60 -144 -87 -205 -28 -60 -70 -153 -94 -205 -23 -52 -82 -194
-130 -315 -47 -121 -93 -233 -101 -249 -19 -36 -4 -69 38 -86 24 -10 33 -8 73
15 40 24 52 26 99 20 28 -4 210 -9 403 -11 l351 -4 26 34 c14 18 35 55 45 82
64 164 153 376 176 418 14 27 26 58 26 69 0 10 13 45 29 76 16 31 32 71 35 88
3 18 23 69 45 114 22 44 43 95 46 112 4 18 20 57 36 87 28 55 84 195 119 300
20 61 64 161 114 260 18 36 36 81 40 101 9 48 62 174 124 294 29 54 52 108 52
120 0 23 27 97 63 170 28 56 72 167 82 205 4 14 21 57 40 95 18 39 40 93 48
121 8 28 25 70 36 92 12 23 35 84 52 134 17 51 39 107 49 123 10 17 23 49 29
71 6 23 25 58 41 79 17 21 33 50 36 64 3 14 9 34 15 43 5 10 9 30 9 46 0 35
-74 231 -127 337 -22 44 -56 118 -76 165 -19 47 -53 121 -74 165 -22 44 -59
124 -84 178 -41 92 -78 148 -96 146 -4 0 -16 -4 -27 -8z"/>
<path d="M32397 9126 c-8 -21 -9 -629 -1 -650 5 -13 26 -16 130 -16 172 0 264
15 315 52 55 40 79 83 79 141 0 85 -44 143 -122 162 -16 4 -28 9 -28 12 0 3
25 28 55 57 51 48 55 55 55 97 0 56 -34 109 -87 134 -55 27 -387 36 -396 11z
m284 -76 c79 -22 102 -84 52 -140 -31 -35 -79 -49 -160 -50 -36 0 -53 4 -54
13 -2 40 3 172 7 179 7 11 112 10 155 -2z m27 -285 c59 -18 92 -53 92 -99 0
-32 -36 -93 -65 -109 -8 -4 -60 -11 -115 -14 l-100 -6 0 121 0 122 68 0 c38 0
91 -7 120 -15z"/>
<path d="M33090 9133 c0 -5 0 -156 -1 -338 l-1 -330 223 0 223 0 6 25 c12 46
0 50 -176 50 l-163 0 4 108 4 107 143 5 143 5 3 38 3 37 -145 0 c-80 0 -147 3
-149 8 -3 4 -2 53 1 110 l5 102 153 0 c144 0 153 1 159 20 3 11 3 29 0 40 -6
19 -15 20 -221 20 -118 0 -214 -3 -214 -7z"/>
<path d="M33894 9088 c-42 -82 -284 -612 -284 -621 0 -4 28 -7 62 -5 l62 3 36
85 36 85 169 3 170 2 29 -72 c41 -102 48 -108 118 -108 32 0 58 2 58 4 0 4
-44 98 -255 551 -20 44 -41 90 -46 103 -8 19 -15 22 -69 22 l-60 0 -26 -52z
m148 -218 c32 -74 58 -138 58 -142 0 -4 -56 -8 -125 -8 -69 0 -125 4 -125 8 0
4 25 65 55 135 30 70 55 132 55 138 0 6 5 9 12 7 7 -3 38 -65 70 -138z"/>
<path d="M34467 9058 c-17 -207 -3 -409 32 -481 41 -86 186 -132 341 -109 128
18 198 63 229 146 17 45 21 89 27 290 l7 237 -62 -3 -63 -3 -1 -241 -2 -241
-28 -36 c-38 -51 -80 -70 -162 -74 -86 -5 -126 13 -170 76 l-30 43 2 239 3
239 -59 0 -58 0 -6 -82z"/>
<path d="M35217 9120 c-3 -11 -3 -29 0 -40 5 -19 14 -20 124 -20 l119 0 0
-300 0 -301 58 3 57 3 3 298 2 297 103 0 c56 0 108 4 115 9 8 5 12 21 10 37
l-3 29 -291 3 c-285 2 -292 2 -297 -18z"/>
<path d="M35850 9129 c0 -5 56 -100 125 -210 l125 -200 0 -130 0 -129 60 0 60
0 0 131 0 130 43 67 c24 37 63 98 88 137 24 38 63 98 87 134 23 35 42 68 42
73 0 5 -26 8 -57 6 -65 -3 -57 5 -192 -207 -35 -56 -68 -101 -72 -101 -4 0
-10 7 -13 16 -3 9 -45 79 -92 155 l-86 139 -59 0 c-35 0 -59 -4 -59 -11z"/>
<path d="M10635 5450 c-420 -83 -733 -390 -855 -841 -37 -136 -70 -388 -70
-534 0 -135 31 -392 60 -500 83 -307 228 -533 444 -692 332 -245 904 -268
1268 -50 172 103 325 308 403 541 39 117 45 109 -107 156 -73 23 -167 53 -208
66 -41 13 -80 24 -87 24 -6 0 -14 -19 -18 -42 -36 -211 -159 -394 -321 -476
-103 -52 -302 -69 -415 -36 -126 38 -241 120 -324 234 -37 50 -102 175 -117
224 -62 206 -84 408 -74 666 14 337 95 572 254 741 87 93 169 140 283 164 201
42 381 -4 506 -132 79 -79 155 -229 173 -340 14 -87 10 -86 163 -48 255 64
307 79 307 89 0 24 -63 213 -87 261 -151 298 -395 477 -723 530 -127 20 -339
18 -455 -5z"/>
<path d="M13135 5450 c-336 -61 -585 -244 -757 -560 -133 -244 -193 -594 -168
-980 18 -274 55 -425 155 -625 173 -349 440 -540 834 -596 164 -23 416 4 568
61 195 73 382 224 498 400 98 150 159 305 202 513 26 126 28 145 28 417 0 309
-11 400 -72 594 -55 177 -196 413 -306 513 -113 103 -267 191 -402 232 -170
51 -399 63 -580 31z m337 -355 c182 -39 316 -150 407 -337 63 -129 87 -216
111 -393 25 -181 25 -388 1 -570 -25 -183 -51 -276 -117 -411 -45 -93 -64
-121 -126 -181 -118 -114 -221 -154 -397 -157 -80 -1 -120 4 -161 18 -247 83
-390 280 -461 633 -31 152 -38 499 -15 663 25 172 51 263 111 387 46 94 67
124 132 191 97 99 164 133 318 166 45 9 128 5 197 -9z"/>
<path d="M15575 5450 c-117 -21 -189 -45 -284 -95 -132 -70 -254 -191 -316
-315 -12 -25 -32 -86 -44 -137 -42 -171 -17 -395 61 -545 96 -186 310 -322
679 -433 414 -125 533 -181 598 -284 72 -113 80 -288 17 -409 -47 -91 -164
-161 -308 -183 -110 -17 -289 -7 -363 21 -164 62 -291 207 -341 389 -10 34
-23 61 -29 61 -7 0 -34 -9 -61 -19 -27 -11 -110 -38 -184 -61 -74 -23 -146
-45 -160 -49 -33 -11 -31 -34 16 -145 162 -386 515 -580 1022 -563 317 10 547
93 712 256 111 110 170 235 196 419 26 184 -3 369 -79 502 -64 113 -215 231
-393 308 -77 33 -139 54 -429 142 -242 74 -354 125 -413 188 -70 76 -86 120
-90 244 -4 102 -2 109 27 171 17 36 45 77 63 92 78 66 200 105 335 107 235 3
388 -114 469 -360 15 -47 31 -79 38 -76 6 2 103 29 215 59 113 30 208 61 213
68 10 16 4 34 -42 134 -111 239 -287 400 -525 481 -151 51 -418 65 -600 32z"/>
<path d="M27008 5450 c-340 -63 -601 -266 -766 -595 -61 -122 -88 -207 -132
-421 -5 -23 -14 -115 -20 -204 -23 -349 32 -691 148 -925 86 -174 234 -348
378 -444 201 -135 517 -204 780 -171 381 47 625 206 782 508 45 86 102 238
102 271 0 21 6 19 -260 101 -185 57 -182 57 -193 -24 -13 -91 -95 -261 -163
-336 -19 -21 -58 -54 -87 -73 -162 -111 -433 -118 -613 -16 -121 68 -242 233
-308 417 -52 147 -70 283 -70 542 -1 203 2 251 22 352 37 197 103 350 204 474
79 98 169 155 292 184 320 77 576 -70 674 -387 16 -54 34 -112 39 -130 l8 -31
70 18 c39 9 134 32 212 50 78 18 148 37 155 41 10 6 7 25 -11 86 -83 282 -246
495 -467 609 -116 61 -196 87 -319 109 -121 20 -333 18 -457 -5z"/>
<path d="M29315 5454 c-342 -53 -598 -263 -670 -549 -24 -97 -22 -274 4 -384
54 -225 172 -356 435 -481 67 -32 189 -79 271 -105 332 -103 378 -119 455
-156 88 -42 162 -104 190 -160 11 -20 27 -70 36 -110 15 -64 15 -84 4 -149
-18 -108 -35 -143 -101 -204 -91 -84 -198 -116 -394 -116 -177 0 -296 47 -407
161 -69 72 -110 144 -144 254 -10 33 -19 61 -20 63 -3 5 -428 -130 -438 -138
-4 -5 0 -32 9 -62 136 -409 493 -639 994 -638 509 2 846 204 947 570 28 99 26
390 -3 477 -68 204 -218 343 -491 458 -43 17 -165 57 -272 89 -362 107 -477
157 -545 241 -60 73 -78 127 -78 235 0 110 16 162 68 226 77 93 212 139 392
133 99 -4 114 -7 183 -40 118 -56 198 -153 246 -295 14 -43 29 -84 33 -90 7
-13 432 101 443 119 9 15 -30 119 -75 198 -150 265 -365 411 -667 453 -136 19
-282 19 -405 0z"/>
<path d="M17297 5423 c-4 -3 -7 -611 -7 -1350 l0 -1343 205 0 206 0 -1 1157
c-1 637 2 1159 7 1160 27 9 41 -38 134 -427 11 -47 29 -119 39 -160 54 -210
93 -369 101 -408 5 -24 11 -47 14 -53 3 -5 12 -37 20 -71 13 -59 29 -122 91
-355 14 -54 29 -114 34 -133 4 -19 31 -125 59 -235 50 -190 104 -403 116 -453
l5 -22 277 2 277 3 28 115 c34 136 155 604 275 1060 151 577 200 776 258 1053
15 71 18 77 41 77 l25 0 -1 -637 c0 -351 0 -871 0 -1155 l0 -518 220 0 220 0
2 1343 c2 760 -1 1345 -6 1348 -5 4 -171 7 -370 8 -283 2 -364 -1 -377 -11 -9
-8 -44 -130 -92 -323 -42 -170 -128 -519 -191 -775 -63 -256 -126 -517 -141
-580 -14 -63 -34 -151 -45 -195 -10 -44 -29 -123 -41 -175 -33 -149 -48 -196
-63 -209 -10 -8 -16 -8 -24 1 -10 13 -36 119 -52 213 -21 119 -140 625 -284
1210 -86 347 -167 675 -181 729 -13 55 -30 103 -37 107 -15 10 -732 12 -741 2z"/>
<path d="M20595 5422 c-7 -5 -10 -447 -10 -1347 l0 -1340 903 -3 902 -2 0 190
0 190 -665 0 -665 0 0 430 0 430 495 0 495 0 0 185 0 185 -495 0 -495 0 0 355
0 355 648 0 649 0 7 181 c3 99 4 184 1 190 -7 11 -1755 12 -1770 1z"/>
<path d="M22633 5423 c-10 -3 -13 -52 -13 -194 l0 -189 395 0 395 0 2 -1152 3
-1153 238 -3 237 -2 0 1155 0 1155 400 0 400 0 -2 193 -3 192 -1020 2 c-561 1
-1026 -1 -1032 -4z"/>
<path d="M25121 5416 c-8 -10 -10 -370 -9 -1347 l3 -1334 238 -3 237 -2 0
1344 c0 1216 -2 1344 -16 1350 -9 3 -111 6 -229 6 -167 0 -215 -3 -224 -14z"/>
<path d="M32672 4158 c-10 -10 -91 -14 -310 -18 l-297 -5 -3 -226 -2 -226 42
-12 c33 -9 934 -11 3688 -9 3230 3 3648 5 3675 18 l30 15 3 233 2 232 -3297
-3 c-1814 -2 -3338 -5 -3388 -6 -55 -1 -91 2 -93 9 -5 14 -35 13 -50 -2z"/>
<path d="M915 4154 c-16 -2 -58 -7 -92 -10 l-63 -6 0 -227 0 -226 53 -13 c68
-16 7312 -18 7322 -2 3 6 15 10 25 10 16 0 19 11 24 73 15 175 17 260 7 270
-6 6 -11 34 -11 63 l0 52 -52 7 c-54 7 -7159 16 -7213 9z"/>
</g>
</svg>
